<?xml version="1.0" encoding="UTF-8" standalone="no"?>
<!-- Created with Inkscape (http://www.inkscape.org/) -->
<!DOCTYPE svg PUBLIC "-//W3C//DTD SVG 1.1//EN"
 "http://www.w3.org/Graphics/SVG/1.1/DTD/svg11.dtd" [
  <!ENTITY stroke_color "#ffffff">
  <!ENTITY fill_color "#404040">
]>


<svg
   xmlns:dc="http://purl.org/dc/elements/1.1/"
   xmlns:cc="http://creativecommons.org/ns#"
   xmlns:rdf="http://www.w3.org/1999/02/22-rdf-syntax-ns#"
   xmlns:svg="http://www.w3.org/2000/svg"
   xmlns="http://www.w3.org/2000/svg"
   version="1.1"
   width="55"
   height="55"
   id="svg2">
  <metadata
     id="metadata10">
    <rdf:RDF>
      <cc:Work
         rdf:about="">
        <dc:format>image/svg+xml</dc:format>
        <dc:type
           rdf:resource="http://purl.org/dc/dcmitype/StillImage" />
        <dc:title></dc:title>
      </cc:Work>
    </rdf:RDF>
  </metadata>
  <defs
     id="defs8" />
  <g
     id="layer8"
     style="display:inline">
    <rect
       width="34.323166"
       height="31"
       x="6.0996466"
       y="1.3953482"
       id="rect3872-6-7"
       style="fill:&fill_color;;fill-opacity:1;stroke:&fill_color;;stroke-width:1.27918792;stroke-linecap:round;stroke-linejoin:round;stroke-miterlimit:4;stroke-dasharray:none;display:inline" />
  </g>
  <g
     id="layer7"
     style="display:inline">
    <path
       d="m 33,14 a 8,6.5 0 0 1 8,6.5 l -8,0 z"
       transform="matrix(0.97508995,0,0,1.1852293,-22.177963,4.9881842)"
       id="path3789-0-3-0"
       style="fill:&stroke_color;;stroke:&stroke_color;;stroke-width:4.88301945;stroke-linecap:butt;stroke-linejoin:round;stroke-miterlimit:4;stroke-dasharray:none;display:inline" />
    <path
       d="m 33,14 a 8,6.5 0 0 1 8,6.5"
       transform="matrix(2.2427069,0,0,2.4400714,-64.009322,-20.509838)"
       id="path3789-6-8"
       style="fill:none;stroke:&stroke_color;;stroke-width:2.2440083;stroke-linecap:round;stroke-linejoin:round;stroke-miterlimit:4;stroke-dasharray:none;display:inline" />
    <path
       d="m 33,14 a 8,6.5 0 0 1 8,6.5"
       transform="matrix(3.4128158,0,0,3.7710197,-102.62292,-47.794276)"
       id="path3789-9-4-4"
       style="fill:none;stroke:&stroke_color;;stroke-width:1.46327579;stroke-linecap:round;stroke-linejoin:round;stroke-miterlimit:4;stroke-dasharray:none;display:inline" />
  </g>
  <g
     id="layer6">
    <rect
       width="34.323166"
       height="31"
       x="18.298922"
       y="12.109963"
       id="rect3872-6"
       style="fill:&fill_color;;fill-opacity:1;stroke:&fill_color;;stroke-width:1.27918792;stroke-linecap:round;stroke-linejoin:round;stroke-miterlimit:4;stroke-dasharray:none;display:inline" />
  </g>
  <g
     id="layer5">
    <path
       d="m 33,14 a 8,6.5 0 0 1 8,6.5 l -8,0 z"
       transform="matrix(0.97508995,0,0,1.1852293,-9.9786879,15.702799)"
       id="path3789-0-3"
       style="fill:&stroke_color;;stroke:&stroke_color;;stroke-width:4.88301945;stroke-linecap:butt;stroke-linejoin:round;stroke-miterlimit:4;stroke-dasharray:none;display:inline" />
    <path
       d="m 33,14 a 8,6.5 0 0 1 8,6.5"
       transform="matrix(2.2427069,0,0,2.4400714,-51.810047,-9.795223)"
       id="path3789-6"
       style="fill:none;stroke:&stroke_color;;stroke-width:2.2440083;stroke-linecap:round;stroke-linejoin:round;stroke-miterlimit:4;stroke-dasharray:none;display:inline" />
    <path
       d="m 33,14 a 8,6.5 0 0 1 8,6.5"
       transform="matrix(3.4128158,0,0,3.7710197,-90.423643,-37.079661)"
       id="path3789-9-4"
       style="fill:none;stroke:&stroke_color;;stroke-width:1.46327579;stroke-linecap:round;stroke-linejoin:round;stroke-miterlimit:4;stroke-dasharray:none;display:inline" />
  </g>
  <g
     id="layer4"
     style="display:inline">
    <rect
       width="34.323166"
       height="31"
       x="1.7971152"
       y="21.88372"
       id="rect3872"
       style="fill:&fill_color;;fill-opacity:1;stroke:&fill_color;;stroke-width:1.27918792;stroke-linecap:round;stroke-linejoin:round;stroke-miterlimit:4;stroke-dasharray:none" />
    <path
       d="m 33,14 a 8,6.5 0 0 1 8,6.5 l -8,0 z"
       transform="matrix(0.97508995,0,0,1.1852293,-26.480494,25.476556)"
       id="path3789-0"
       style="fill:&stroke_color;;stroke:&stroke_color;;stroke-width:4.88301945;stroke-linecap:butt;stroke-linejoin:round;stroke-miterlimit:4;stroke-dasharray:none;display:inline" />
  </g>
  <g
     id="layer3"
     style="display:inline">
    <path
       d="m 33,14 a 8,6.5 0 0 1 8,6.5"
       transform="matrix(2.2427069,0,0,2.4400714,-68.311853,-0.02146577)"
       id="path3789"
       style="fill:none;stroke:&stroke_color;;stroke-width:2.2440083;stroke-linecap:round;stroke-linejoin:round;stroke-miterlimit:4;stroke-dasharray:none" />
    <path
       d="m 33,14 a 8,6.5 0 0 1 8,6.5"
       transform="matrix(3.4128158,0,0,3.7710197,-106.92544,-27.305904)"
       id="path3789-9"
       style="fill:none;stroke:&stroke_color;;stroke-width:1.46327579;stroke-linecap:round;stroke-linejoin:round;stroke-miterlimit:4;stroke-dasharray:none" />
  </g>
</svg>
